<svg xmlns="http://www.w3.org/2000/svg" viewBox="0 0 64 64" role="img" aria-label="NPC Simulator">
  <rect width="64" height="64" rx="14" fill="#080a12"/>
  <path d="M18 26c0-7.7 6.3-14 14-14s14 6.3 14 14v3h2a6 6 0 0 1 6 6v6a6 6 0 0 1-6 6h-2v1a8 8 0 0 1-8 8H26a8 8 0 0 1-8-8v-1h-2a6 6 0 0 1-6-6v-6a6 6 0 0 1 6-6h2v-3Z" fill="#111725" stroke="#30dff2" stroke-width="3"/>
  <path d="M32 7v7" stroke="#b9f24d" stroke-width="4" stroke-linecap="round"/>
  <circle cx="32" cy="6" r="3" fill="#b9f24d"/>
  <circle cx="25" cy="35" r="4" fill="#30dff2"/>
  <circle cx="39" cy="35" r="4" fill="#fb4b9b"/>
  <path d="M25 47c4.2 2.8 9.8 2.8 14 0" stroke="#f7b955" stroke-width="4" stroke-linecap="round"/>
  <path d="M17 23h30" stroke="#25324a" stroke-width="3" stroke-linecap="round"/>
</svg>
